<svg xmlns="http://www.w3.org/2000/svg" fill="none" stroke-linecap="square" stroke-miterlimit="10" viewBox="0 0 1152 1368">
  <clipPath id="p.0">
    <path d="M0 0h1152v1368H0V0z"/>
  </clipPath>
  <g clip-path="url(#p.0)">
    <path d="M0 0h1152v1368H0z"/>
    <path fill="#000" fill-rule="evenodd" d="M831.114 979.3c13.24 0 23.975 10.733 23.977 23.973l.025 209.753a23.97 23.97 0 0 1-23.97 23.974H320.888c-13.24 0-23.976-10.734-23.977-23.974l-.026-209.753c-.002-13.24 10.73-23.974 23.971-23.974z"/>
    <path stroke="#000" stroke-linecap="butt" stroke-linejoin="round" d="M831.114 979.3h0c13.24 0 23.975 10.733 23.977 23.973l.025 209.753a23.97 23.97 0 0 1-23.97 23.974H320.888c-13.24 0-23.976-10.734-23.977-23.974l-.026-209.753c-.002-13.24 10.73-23.974 23.971-23.974z"/>
    <path fill="#000" fill-rule="evenodd" d="M864.405 801.48c13.24 0 23.975 10.734 23.977 23.974l.026 209.753a23.971 23.971 0 0 1-23.971 23.974h-576.84c-13.24 0-23.975-10.733-23.977-23.974l-.025-209.753c-.002-13.24 10.73-23.974 23.97-23.974z"/>
    <path stroke="#000" stroke-linecap="butt" stroke-linejoin="round" d="M864.405 801.48h0c13.24 0 23.975 10.734 23.977 23.974l.026 209.753a23.971 23.971 0 0 1-23.971 23.974h-576.84c-13.24 0-23.975-10.733-23.977-23.974l-.025-209.753c-.002-13.24 10.73-23.974 23.97-23.974z"/>
    <path fill="#000" fill-rule="evenodd" d="M832.68 173.142c-8.47-23.275-34.206-35.277-57.48-26.807L406.477 280.513a44.845 44.845 0 0 0-26.805 57.48l210.646 578.769c8.471 23.275 34.207 35.276 57.482 26.807l368.72-134.179c23.276-8.47 35.277-34.204 26.806-57.478z"/>
    <path stroke="#000" stroke-linecap="butt" stroke-linejoin="round" d="M832.68 173.142h0c-8.47-23.275-34.206-35.277-57.48-26.807L406.477 280.513a44.845 44.845 0 0 0-26.805 57.48l210.646 578.769c8.471 23.275 34.207 35.276 57.482 26.807l368.72-134.179c23.276-8.47 35.277-34.204 26.806-57.478z"/>
    <path fill="#000" fill-rule="evenodd" d="M319.32 173.177c8.47-23.275 34.206-35.277 57.48-26.807l368.723 134.18a44.845 44.845 0 0 1 26.805 57.478L561.68 916.797c-8.47 23.275-34.206 35.276-57.48 26.807L135.477 809.425c-23.275-8.47-35.276-34.204-26.805-57.478z"/>
    <path stroke="#000" stroke-linecap="butt" stroke-linejoin="round" d="M319.32 173.177h0c8.47-23.275 34.206-35.277 57.48-26.807l368.723 134.18a44.845 44.845 0 0 1 26.805 57.478L561.68 916.797c-8.47 23.275-34.206 35.276-57.48 26.807L135.477 809.425c-23.275-8.47-35.276-34.204-26.805-57.478z"/>
    <path fill="#fff" fill-rule="evenodd" d="M340.948 222.516c7.163-19.683 28.926-29.832 48.608-22.67l311.81 113.465a37.924 37.924 0 0 1 22.669 48.606L540.053 867.46c-7.163 19.683-28.926 29.832-48.608 22.67l-311.81-113.465c-19.683-7.162-29.832-28.924-22.669-48.606z"/>
    <path stroke="#000" stroke-linecap="butt" stroke-linejoin="round" d="M340.948 222.516h0c7.163-19.683 28.926-29.832 48.608-22.67l311.81 113.465a37.924 37.924 0 0 1 22.669 48.606L540.053 867.46c-7.163 19.683-28.926 29.832-48.608 22.67l-311.81-113.465c-19.683-7.162-29.832-28.924-22.669-48.606z"/>
    <path fill="#000" fill-rule="evenodd" d="M475.556 448.891c-5.445 8.394-11.372 15.257-17.781 20.588-6.37 5.346-15.465 10.761-27.283 16.247-7.672 3.574-19.038 7.514-34.099 11.82-15.022 4.32-26.742 9.84-35.162 16.562-5.986 4.778-10.382 11.019-13.186 18.723-3.373 9.266-2.483 18.668 2.671 28.208 5.155 9.54 13.006 16.228 23.553 20.066 9.728 3.54 19.375 4.26 28.943 2.162 9.62-2.12 18.867-7.165 27.742-15.136-7.604 22.346-19.404 36.956-35.4 43.829-15.944 6.853-34.698 6.356-56.262-1.492l-3.334 5.33 139.23 50.667.873-6.226c-15.715-6.78-27.443-14.486-35.183-23.12-7.728-8.668-12.163-18.3-13.305-28.894-1.09-10.615 1.09-23.596 6.545-38.943 2.06 11.479 5.457 20.556 10.194 27.231 6.278 9.005 14.222 15.257 23.832 18.754 10.548 3.838 20.785 3.79 30.711-.143 9.926-3.934 16.69-10.846 20.29-20.736 2.615-7.184 3.03-15.07 1.246-23.658-1.771-8.623-8.408-22.415-19.909-41.378-11.45-18.983-18.728-34.05-21.835-45.203-3.107-11.152-4.138-22.905-3.091-35.258z"/>
    <path stroke="#000" stroke-linecap="butt" stroke-linejoin="round" d="M475.556 448.891c-5.445 8.394-11.372 15.257-17.781 20.588-6.37 5.346-15.465 10.761-27.283 16.247-7.672 3.574-19.038 7.514-34.099 11.82-15.022 4.32-26.742 9.84-35.162 16.562-5.986 4.778-10.382 11.019-13.186 18.723-3.373 9.266-2.483 18.668 2.671 28.208 5.155 9.54 13.006 16.228 23.553 20.066 9.728 3.54 19.375 4.26 28.943 2.162 9.62-2.12 18.867-7.165 27.742-15.136h0c-7.604 22.346-19.404 36.956-35.4 43.829-15.944 6.853-34.698 6.356-56.262-1.492l-3.334 5.33 139.23 50.667.873-6.226c-15.715-6.78-27.443-14.486-35.183-23.12-7.728-8.668-12.163-18.3-13.305-28.894-1.09-10.615 1.09-23.596 6.545-38.943h0c2.06 11.479 5.457 20.556 10.194 27.231 6.278 9.005 14.222 15.257 23.832 18.754 10.548 3.838 20.785 3.79 30.711-.143 9.926-3.934 16.69-10.846 20.29-20.736 2.615-7.184 3.03-15.07 1.246-23.658-1.771-8.623-8.408-22.415-19.909-41.378-11.45-18.983-18.728-34.05-21.835-45.203-3.107-11.152-4.138-22.905-3.091-35.258z"/>
    <path fill="#000" fill-rule="evenodd" d="M810.994 222.52c-7.165-19.678-28.927-29.825-48.606-22.662L450.63 313.322a37.914 37.914 0 0 0-22.66 48.6l184.038 505.462c7.165 19.679 28.926 29.825 48.606 22.663l311.758-113.465c19.68-7.162 29.824-28.921 22.66-48.6z"/>
    <path stroke="#000" stroke-linecap="butt" stroke-linejoin="round" d="M810.994 222.52h0c-7.165-19.678-28.927-29.825-48.606-22.662L450.63 313.322a37.914 37.914 0 0 0-22.66 48.6l184.038 505.462c7.165 19.679 28.926 29.825 48.606 22.663l311.758-113.465c19.68-7.162 29.824-28.921 22.66-48.6z"/>
    <path fill="#fff" fill-rule="evenodd" d="M818.145 229.774c-6.985-19.186-28.202-29.08-47.39-22.097L466.79 318.297a36.965 36.965 0 0 0-22.093 47.383l183.018 502.677c6.985 19.186 28.203 29.08 47.39 22.097l303.965-110.62c19.187-6.982 29.08-28.196 22.094-47.382z"/>
    <path stroke="#000" stroke-linecap="butt" stroke-linejoin="round" d="M818.145 229.774h0c-6.985-19.186-28.202-29.08-47.39-22.097L466.79 318.297a36.965 36.965 0 0 0-22.093 47.383l183.018 502.677c6.985 19.186 28.203 29.08 47.39 22.097l303.965-110.62c19.187-6.982 29.08-28.196 22.094-47.382z"/>
    <path fill="#000" fill-rule="evenodd" d="M245.458 684.654l-.394 32.602-20.519-7.467 20.913-25.135zm12.288-30.927l-62.01 73.741-13.87-1.517-2.768 7.605 34.035 12.385 2.769-7.604-9.926-6.691 11.646-13.762 27.288 9.93-.347 18.324-10.067-1.035-2.769 7.605 44.063 16.034 2.768-7.604-11.346-7.659 1.851-95.634z"/>
    <path stroke="#000" stroke-linecap="butt" stroke-linejoin="round" d="M245.458 684.654l-.394 32.602-20.519-7.467 20.913-25.135zm12.288-30.927l-62.01 73.741-13.87-1.517-2.768 7.605 34.035 12.385 2.769-7.604-9.926-6.691 11.646-13.762 27.288 9.93-.347 18.324-10.067-1.035-2.769 7.605 44.063 16.034 2.768-7.604-11.346-7.659 1.851-95.634z"/>
    <path fill="red" fill-rule="evenodd" d="M659.726 777.092l20.658 25.227-20.519 7.467-.14-32.694zm-10.47-31.59l-.094 96.343-11.6 7.75 2.768 7.605 34.036-12.385-2.768-7.605-11.905 1.253.073-18.026 27.288-9.93 11.515 14.26-8.378 5.677 2.769 7.604 44.062-16.034-2.768-7.604-13.615 1.424-60.066-74.45zm91.848-461.926l20.658 25.227-20.519 7.467-.14-32.694zm-10.47-31.589l-.094 96.342-11.6 7.751 2.768 7.604 34.036-12.385-2.768-7.605-11.905 1.253.073-18.026 27.288-9.93 11.515 14.26-8.378 5.677 2.769 7.605 44.062-16.035-2.768-7.604-13.615 1.425-60.066-74.45z"/>
    <path stroke="red" stroke-linecap="butt" stroke-linejoin="round" d="M741.104 283.576l20.658 25.227-20.519 7.467-.14-32.694zm-10.47-31.589l-.094 96.342-11.6 7.751 2.768 7.604 34.036-12.385-2.768-7.605-11.905 1.253.073-18.026 27.288-9.93 11.515 14.26-8.378 5.677 2.769 7.605 44.062-16.035-2.768-7.604-13.615 1.425-60.066-74.45z"/>
    <path fill="red" fill-rule="evenodd" d="M365.6 968.165l10.783 30.77h-21.835l11.053-30.77zm.969-33.264l-33.046 90.5-13.552 3.316v8.093h36.22v-8.093l-11.615-2.893 6.235-16.914h29.04l5.942 17.337-9.815 2.47v8.093h46.89v-8.093l-13.281-3.317-30.975-90.499zm101.381 67.21v19.808c-2.76 3.183-6.22 4.775-10.377 4.775-2.581 0-4.772-.815-6.573-2.446-1.786-1.647-2.679-3.866-2.679-6.658 0-4.626 1.981-8.359 5.943-11.198 3.962-2.854 8.524-4.281 13.687-4.281zm-8.306-39.733c-4.787 0-9.717.65-14.79 1.952-5.072 1.302-8.486 2.337-10.242 3.106l-4.142 1.882c0 7.904 3.137 13.73 9.41 17.478l17.558-15.902c2.026 0 3.73.313 5.11.94 1.38.628 2.416 1.334 3.107 2.118.705.768 1.238 2.07 1.598 3.905.375 1.82.585 3.38.63 4.681.045 1.302.068 3.396.068 6.282v4.352c-14.752 0-25.43 2.195-32.033 6.586-6.589 4.376-9.883 10.751-9.883 19.126 0 6.65 2.146 11.66 6.439 15.032 4.292 3.372 9.62 5.058 15.982 5.058 7.279 0 14.01-2.454 20.192-7.363 3.407 4.909 8.615 7.363 15.623 7.363 2.956 0 5.815-.627 8.577-1.882 2.761-1.255 4.554-2.266 5.38-3.035a42.842 42.842 0 0 0 1.958-1.882v-6.21h-10.805v-38.722c0-16.577-9.912-24.865-29.737-24.865zm103.176 0c-9.485 0-17.686 3.615-24.605 10.845v-8.681h-10.94l-22.128 5.481v7.67h11.773v48.554l-11.773 2.894v7.67h47.588v-7.671l-14.52-2.893v-43.78c2.206-2.022 4.42-3.567 6.641-4.634l17.423 3.035c.916-3.842 1.374-7.983 1.374-12.42 0-2.212-.278-4.235-.833-6.07zm4.012 2.164v7.67l11.773 2.893v41.191c0 15.119 7.054 22.678 21.16 22.678 9.485 0 17.507-3.129 24.065-9.386 2.671 6.257 7.323 9.386 13.956 9.386 1.381 0 2.874-.149 4.48-.447a22.251 22.251 0 0 0 4.705-1.364 67.874 67.874 0 0 0 4.164-1.859c1.246-.627 2.882-1.67 4.908-3.129v-6.21H645.26v-61.423h-30.435v7.67l9.005 2.893v44.367c-1.756 2.4-4.067 4.329-6.934 5.787-2.851 1.443-5.612 2.164-8.284 2.164-3.511 0-5.845-.94-7-2.823-1.141-1.881-1.711-5.277-1.711-10.186v-49.872zm127.255-2.164c-9.034 0-16.343 1.882-21.925 5.646-5.583 3.748-8.374 9.237-8.374 16.467 0 5.881 1.448 10.68 4.344 14.397 2.912 3.701 7.549 6.995 13.912 9.88 4.892 2.212 8.209 3.757 9.95 4.635 1.756.862 3.601 2.039 5.537 3.528 1.936 1.49 2.904 3.247 2.904 5.27 0 4.924-5.387 7.387-16.162 7.387-1.951 0-4.585-.094-7.902-.283l-4.975-14.326h-7.743v20.678c8.028 2.211 16.418 3.317 25.167 3.317 9.32 0 16.785-1.874 22.398-5.622 5.628-3.764 8.442-9.214 8.442-16.35 0-6.257-1.479-11.237-4.435-14.938-2.941-3.717-8.607-7.552-16.996-11.504-4.697-2.117-8.134-3.803-10.31-5.058-2.16-1.254-3.661-2.509-4.502-3.763-.825-1.255-1.238-2.455-1.238-3.6 0-4.532 4.427-6.798 13.281-6.798 2.762 0 5.53.235 8.307.705l4.277 12.727h7.204V965.13c-5.898-1.835-12.952-2.752-21.16-2.752zm54.483-41.192l-22.129 5.481v7.67h11.751v91.91l-11.75 2.894v7.67h42.05v-7.671l-8.982-2.893v-44.79c2.851-2.322 5.522-3.96 8.014-4.917 2.49-.957 4.66-1.435 6.505-1.435 3.497 0 5.77 1.129 6.821 3.387 1.066 2.259 1.598 5.795 1.598 10.61v37.145l-8.981 2.894v7.67h42.05v-7.671l-11.75-2.893v-41.191c0-3.263-.556-6.29-1.667-9.081-1.11-2.807-2.656-5.222-4.637-7.246-1.98-2.023-4.427-3.583-7.338-4.681-2.897-1.113-6.146-1.67-9.748-1.67-8.299 0-15.255 3.082-20.867 9.245v-50.437z"/>
    <path stroke="red" stroke-linecap="butt" stroke-linejoin="round" d="M365.6 968.165l10.783 30.77h-21.835l11.053-30.77zm.969-33.264l-33.046 90.5-13.552 3.316v8.093h36.22v-8.093l-11.615-2.893 6.235-16.914h29.04l5.942 17.337-9.815 2.47v8.093h46.89v-8.093l-13.281-3.317-30.975-90.499zm101.381 67.21v19.808c-2.76 3.183-6.22 4.775-10.377 4.775-2.581 0-4.772-.815-6.573-2.446-1.786-1.647-2.679-3.866-2.679-6.658 0-4.626 1.981-8.359 5.943-11.198 3.962-2.854 8.524-4.281 13.687-4.281zm-8.306-39.733c-4.787 0-9.717.65-14.79 1.952-5.072 1.302-8.486 2.337-10.242 3.106l-4.142 1.882c0 7.904 3.137 13.73 9.41 17.478l17.558-15.902c2.026 0 3.73.313 5.11.94 1.38.628 2.416 1.334 3.107 2.118.705.768 1.238 2.07 1.598 3.905.375 1.82.585 3.38.63 4.681.045 1.302.068 3.396.068 6.282v4.352c-14.752 0-25.43 2.195-32.033 6.586-6.589 4.376-9.883 10.751-9.883 19.126 0 6.65 2.146 11.66 6.439 15.032 4.292 3.372 9.62 5.058 15.982 5.058 7.279 0 14.01-2.454 20.192-7.363 3.407 4.909 8.615 7.363 15.623 7.363 2.956 0 5.815-.627 8.577-1.882 2.761-1.255 4.554-2.266 5.38-3.035a42.842 42.842 0 0 0 1.958-1.882v-6.21h-10.805v-38.722c0-16.577-9.912-24.865-29.737-24.865zm103.176 0c-9.485 0-17.686 3.615-24.605 10.845v-8.681h-10.94l-22.128 5.481v7.67h11.773v48.554l-11.773 2.894v7.67h47.588v-7.671l-14.52-2.893v-43.78c2.206-2.022 4.42-3.567 6.641-4.634l17.423 3.035c.916-3.842 1.374-7.983 1.374-12.42 0-2.212-.278-4.235-.833-6.07zm4.012 2.164v7.67l11.773 2.893v41.191c0 15.119 7.054 22.678 21.16 22.678 9.485 0 17.507-3.129 24.065-9.386 2.671 6.257 7.323 9.386 13.956 9.386 1.381 0 2.874-.149 4.48-.447a22.251 22.251 0 0 0 4.705-1.364 67.874 67.874 0 0 0 4.164-1.859c1.246-.627 2.882-1.67 4.908-3.129v-6.21H645.26v-61.423h-30.435v7.67l9.005 2.893v44.367c-1.756 2.4-4.067 4.329-6.934 5.787-2.851 1.443-5.612 2.164-8.284 2.164-3.511 0-5.845-.94-7-2.823-1.141-1.881-1.711-5.277-1.711-10.186v-49.872zm127.255-2.164c-9.034 0-16.343 1.882-21.925 5.646-5.583 3.748-8.374 9.237-8.374 16.467 0 5.881 1.448 10.68 4.344 14.397 2.912 3.701 7.549 6.995 13.912 9.88 4.892 2.212 8.209 3.757 9.95 4.635 1.756.862 3.601 2.039 5.537 3.528 1.936 1.49 2.904 3.247 2.904 5.27 0 4.924-5.387 7.387-16.162 7.387-1.951 0-4.585-.094-7.902-.283l-4.975-14.326h-7.743v20.678c8.028 2.211 16.418 3.317 25.167 3.317 9.32 0 16.785-1.874 22.398-5.622 5.628-3.764 8.442-9.214 8.442-16.35 0-6.257-1.479-11.237-4.435-14.938-2.941-3.717-8.607-7.552-16.996-11.504-4.697-2.117-8.134-3.803-10.31-5.058-2.16-1.254-3.661-2.509-4.502-3.763-.825-1.255-1.238-2.455-1.238-3.6 0-4.532 4.427-6.798 13.281-6.798 2.762 0 5.53.235 8.307.705l4.277 12.727h7.204V965.13c-5.898-1.835-12.952-2.752-21.16-2.752zm54.483-41.192l-22.129 5.481v7.67h11.751v91.91l-11.75 2.894v7.67h42.05v-7.671l-8.982-2.893v-44.79c2.851-2.322 5.522-3.96 8.014-4.917 2.49-.957 4.66-1.435 6.505-1.435 3.497 0 5.77 1.129 6.821 3.387 1.066 2.259 1.598 5.795 1.598 10.61v37.145l-8.981 2.894v7.67h42.05v-7.671l-11.75-2.893v-41.191c0-3.263-.556-6.29-1.667-9.081-1.11-2.807-2.656-5.222-4.637-7.246-1.98-2.023-4.427-3.583-7.338-4.681-2.897-1.113-6.146-1.67-9.748-1.67-8.299 0-15.255 3.082-20.867 9.245v-50.437z"/>
    <path fill="#fff" fill-rule="evenodd" d="M364.166 1063.704l-.27 8.093 12.156 3.034-4.277 78.643-13.146 3.317v8.093h36.242v-8.093l-12.313-3.035 3.196-61.14 30.007 72.997h8.982l30.975-72.574 3.737 60.717-12.156 3.035v8.093h48.533v-8.093l-13.281-3.176-4.84-78.784 12.314-3.034v-8.093H456.55l-29.602 68.95-28.476-68.95zm252.401 36.863c4.532 0 7.901 1.522 10.107 4.564 2.206 3.027 3.31 6.854 3.31 11.48 0 4.627-1.104 8.414-3.31 11.363-2.206 2.932-5.575 4.399-10.107 4.399-4.697 0-8.059-1.467-10.085-4.4-2.026-2.948-3.039-6.735-3.039-11.362 0-4.626 1.013-8.453 3.04-11.48 2.025-3.042 5.387-4.564 10.084-4.564zm-72.876 29.618v19.808c-2.761 3.183-6.22 4.775-10.378 4.775-2.58 0-4.772-.815-6.573-2.446-1.786-1.647-2.679-3.866-2.679-6.658 0-4.626 1.981-8.359 5.943-11.198 3.962-2.854 8.525-4.28 13.687-4.28zm-8.307-39.733c-4.787 0-9.717.65-14.79 1.952-5.072 1.302-8.486 2.337-10.242 3.105l-4.142 1.883c0 7.904 3.137 13.73 9.41 17.478l17.558-15.902c2.026 0 3.73.313 5.11.94 1.381.628 2.417 1.334 3.107 2.118.705.768 1.238 2.07 1.598 3.905.375 1.82.585 3.38.63 4.681.045 1.302.068 3.396.068 6.28v4.354c-14.752 0-25.43 2.195-32.033 6.586-6.588 4.376-9.882 10.751-9.882 19.126 0 6.65 2.146 11.66 6.438 15.032s9.62 5.058 15.983 5.058c7.278 0 14.009-2.454 20.192-7.363 3.406 4.909 8.614 7.363 15.622 7.363 2.957 0 5.816-.627 8.577-1.882s4.555-2.266 5.38-3.035a42.85 42.85 0 0 0 1.959-1.882v-6.21H565.12v-38.722c0-16.577-9.912-24.865-29.737-24.865zm88.521 82.948c6.364 0 10.746.792 13.147 2.376 2.401 1.6 3.602 3.944 3.602 7.033 0 4.047-2.079 7.419-6.236 10.116-4.142 2.698-10.092 4.046-17.851 4.046-11.796 0-17.694-4.43-17.694-13.29 0-3.859 1.013-7.286 3.04-10.281zm35.815-84.407l-21.565 8.399c-6.093-3.859-13.29-5.788-21.588-5.788-9.59 0-17.521 2.44-23.794 7.317-6.258 4.861-9.387 10.758-9.387 17.69 0 4.627 1.336 8.845 4.007 12.656 2.671 3.796 6.408 6.807 11.21 9.034l-15.915 14.303a15.38 15.38 0 0 0 .203 4.775c.33 1.537.773 2.886 1.328 4.047 1.47 2.885 3.451 5.246 5.943 7.08-8.21 4.517-12.314 10.634-12.314 18.35 0 13.001 13.049 19.502 39.147 19.502 12.35 0 21.963-2.768 28.836-8.305 6.873-5.536 10.31-12.013 10.31-19.43 0-7.623-2.469-13.551-7.406-17.786-4.937-4.234-11.968-6.351-21.093-6.351h-10.107c-4.607 0-7.879-.22-9.815-.659-1.936-.44-3.452-1.623-4.547-3.552l6.078-8.798c1.56.094 4 .14 7.316.14 10.235 0 18.369-2.383 24.402-7.15 6.048-4.768 9.072-10.72 9.072-17.856 0-4.344-1.471-8.54-4.413-12.586h15.218c.36-1.63.54-4.085.54-7.363 0-2.791-.555-5.348-1.666-7.669zm28.093-31.923c-3.601 0-6.648 1.278-9.139 3.835-2.491 2.54-3.737 5.693-3.737 9.457 0 3.858 1.246 7.088 3.737 9.692 2.491 2.587 5.538 3.881 9.14 3.881 3.676 0 6.738-1.294 9.184-3.881 2.446-2.604 3.67-5.834 3.67-9.692 0-3.764-1.224-6.917-3.67-9.457-2.446-2.557-5.508-3.835-9.185-3.835zm-.292 35.546l-22.128 5.481v7.67h11.773v48.554l-11.773 2.894v7.669h44.819v-7.67l-11.75-2.893v-61.705zm64.184-2.164c-9.59 0-17.91 3.544-24.964 10.633-7.054 7.073-10.58 16.2-10.58 27.383 0 11.84 3.684 21.234 11.053 28.182 7.383 6.932 16.282 10.398 26.697 10.398 7.834 0 15.488-1.639 22.962-4.917l-1.666-8.516a65.712 65.712 0 0 1-7.811 2.023c-2.537.487-5.14.73-7.812.73-6.363 0-11.525-1.976-15.487-5.929-4.247-4.83-6.318-12.06-6.213-21.69 0-8.578 1.47-15.251 4.412-20.019 2.956-4.767 6.37-7.731 10.242-8.892h.833l11.886 14.303c6.453-3.748 9.822-9.622 10.107-17.62-7.758-4.046-15.645-6.07-23.659-6.07z"/>
    <path stroke="#000" stroke-linecap="butt" stroke-linejoin="round" d="M364.166 1063.704l-.27 8.093 12.156 3.034-4.277 78.643-13.146 3.317v8.093h36.242v-8.093l-12.313-3.035 3.196-61.14 30.007 72.997h8.982l30.975-72.574 3.737 60.717-12.156 3.035v8.093h48.533v-8.093l-13.281-3.176-4.84-78.784 12.314-3.034v-8.093H456.55l-29.602 68.95-28.476-68.95zm252.401 36.863c4.532 0 7.901 1.522 10.107 4.564 2.206 3.027 3.31 6.854 3.31 11.48 0 4.627-1.104 8.414-3.31 11.363-2.206 2.932-5.575 4.399-10.107 4.399-4.697 0-8.059-1.467-10.085-4.4-2.026-2.948-3.039-6.735-3.039-11.362 0-4.626 1.013-8.453 3.04-11.48 2.025-3.042 5.387-4.564 10.084-4.564zm-72.876 29.618v19.808c-2.761 3.183-6.22 4.775-10.378 4.775-2.58 0-4.772-.815-6.573-2.446-1.786-1.647-2.679-3.866-2.679-6.658 0-4.626 1.981-8.359 5.943-11.198 3.962-2.854 8.525-4.28 13.687-4.28zm-8.307-39.733c-4.787 0-9.717.65-14.79 1.952-5.072 1.302-8.486 2.337-10.242 3.105l-4.142 1.883c0 7.904 3.137 13.73 9.41 17.478l17.558-15.902c2.026 0 3.73.313 5.11.94 1.381.628 2.417 1.334 3.107 2.118.705.768 1.238 2.07 1.598 3.905.375 1.82.585 3.38.63 4.681.045 1.302.068 3.396.068 6.28v4.354c-14.752 0-25.43 2.195-32.033 6.586-6.588 4.376-9.882 10.751-9.882 19.126 0 6.65 2.146 11.66 6.438 15.032s9.62 5.058 15.983 5.058c7.278 0 14.009-2.454 20.192-7.363 3.406 4.909 8.614 7.363 15.622 7.363 2.957 0 5.816-.627 8.577-1.882s4.555-2.266 5.38-3.035a42.85 42.85 0 0 0 1.959-1.882v-6.21H565.12v-38.722c0-16.577-9.912-24.865-29.737-24.865zm88.521 82.948c6.364 0 10.746.792 13.147 2.376 2.401 1.6 3.602 3.944 3.602 7.033 0 4.047-2.079 7.419-6.236 10.116-4.142 2.698-10.092 4.046-17.851 4.046-11.796 0-17.694-4.43-17.694-13.29 0-3.859 1.013-7.286 3.04-10.281zm35.815-84.407l-21.565 8.399c-6.093-3.859-13.29-5.788-21.588-5.788-9.59 0-17.521 2.44-23.794 7.317-6.258 4.861-9.387 10.758-9.387 17.69 0 4.627 1.336 8.845 4.007 12.656 2.671 3.796 6.408 6.807 11.21 9.034l-15.915 14.303a15.38 15.38 0 0 0 .203 4.775c.33 1.537.773 2.886 1.328 4.047 1.47 2.885 3.451 5.246 5.943 7.08-8.21 4.517-12.314 10.634-12.314 18.35 0 13.001 13.049 19.502 39.147 19.502 12.35 0 21.963-2.768 28.836-8.305 6.873-5.536 10.31-12.013 10.31-19.43 0-7.623-2.469-13.551-7.406-17.786-4.937-4.234-11.968-6.351-21.093-6.351h-10.107c-4.607 0-7.879-.22-9.815-.659-1.936-.44-3.452-1.623-4.547-3.552l6.078-8.798c1.56.094 4 .14 7.316.14 10.235 0 18.369-2.383 24.402-7.15 6.048-4.768 9.072-10.72 9.072-17.856 0-4.344-1.471-8.54-4.413-12.586h15.218c.36-1.63.54-4.085.54-7.363 0-2.791-.555-5.348-1.666-7.669zm28.093-31.923c-3.601 0-6.648 1.278-9.139 3.835-2.491 2.54-3.737 5.693-3.737 9.457 0 3.858 1.246 7.088 3.737 9.692 2.491 2.587 5.538 3.881 9.14 3.881 3.676 0 6.738-1.294 9.184-3.881 2.446-2.604 3.67-5.834 3.67-9.692 0-3.764-1.224-6.917-3.67-9.457-2.446-2.557-5.508-3.835-9.185-3.835zm-.292 35.546l-22.128 5.481v7.67h11.773v48.554l-11.773 2.894v7.669h44.819v-7.67l-11.75-2.893v-61.705zm64.184-2.164c-9.59 0-17.91 3.544-24.964 10.633-7.054 7.073-10.58 16.2-10.58 27.383 0 11.84 3.684 21.234 11.053 28.182 7.383 6.932 16.282 10.398 26.697 10.398 7.834 0 15.488-1.639 22.962-4.917l-1.666-8.516a65.712 65.712 0 0 1-7.811 2.023c-2.537.487-5.14.73-7.812.73-6.363 0-11.525-1.976-15.487-5.929-4.247-4.83-6.318-12.06-6.213-21.69 0-8.578 1.47-15.251 4.412-20.019 2.956-4.767 6.37-7.731 10.242-8.892h.833l11.886 14.303c6.453-3.748 9.822-9.622 10.107-17.62-7.758-4.046-15.645-6.07-23.659-6.07z"/>
    <path fill="red" fill-rule="evenodd" d="M691.264 493.89c-.456-143.203 223.554-81.41 59.244 162.755-282.799-81.346-150.946-272.73-59.244-162.756z"/>
    <path stroke="red" stroke-linecap="butt" stroke-linejoin="round" d="M691.264 493.89c-.456-143.203 223.554-81.41 59.244 162.755-282.799-81.346-150.946-272.73-59.244-162.756z"/>
    <path fill="#000" fill-rule="evenodd" d="M518.395 188.606c0-31.815 25.791-57.606 57.606-57.606a57.606 57.606 0 0 1 57.607 57.606c0 31.815-25.792 57.607-57.607 57.607-31.815 0-57.606-25.792-57.606-57.607z"/>
    <path stroke="#000" stroke-linecap="butt" stroke-linejoin="round" d="M518.395 188.606h0c0-31.815 25.791-57.606 57.606-57.606h0a57.606 57.606 0 0 1 57.607 57.606h0c0 31.815-25.792 57.607-57.607 57.607h0c-31.815 0-57.606-25.792-57.606-57.607z"/>
    <path fill="#fff" fill-rule="evenodd" d="M552.001 188.606c0-13.255 10.745-24 24-24a24 24 0 0 1 24 24c0 13.255-10.745 24-24 24s-24-10.745-24-24z"/>
    <path stroke="#000" stroke-linecap="butt" stroke-linejoin="round" d="M552.001 188.606h0c0-13.255 10.745-24 24-24h0a24 24 0 0 1 24 24h0c0 13.255-10.745 24-24 24h0c-13.255 0-24-10.745-24-24z"/>
  </g>
</svg>
